<svg width="33" height="32" viewBox="0 0 33 32" fill="none" xmlns="http://www.w3.org/2000/svg">
<g id="Group 1">
<path id="Vector" d="M16.3333 0C7.497 0 0.333252 7.16375 0.333252 16C0.333252 20.4188 2.1245 24.4187 5.0195 27.3137L1.972 30.3612C1.367 30.9662 1.79575 32 2.65075 32H16.3333C25.1695 32 32.3333 24.8363 32.3333 16C32.3333 7.16375 25.1695 0 16.3333 0Z" fill="#FF4500"/>
<path id="Vector_2" d="M25.4032 19.1925C27.4667 19.1925 29.1395 17.5197 29.1395 15.4562C29.1395 13.3927 27.4667 11.72 25.4032 11.72C23.3398 11.72 21.667 13.3927 21.667 15.4562C21.667 17.5197 23.3398 19.1925 25.4032 19.1925Z" fill="url(#paint0_radial_167_2117)"/>
<path id="Vector_3" d="M7.26335 19.1925C9.32682 19.1925 10.9996 17.5197 10.9996 15.4562C10.9996 13.3927 9.32682 11.72 7.26335 11.72C5.19988 11.72 3.5271 13.3927 3.5271 15.4562C3.5271 17.5197 5.19988 19.1925 7.26335 19.1925Z" fill="url(#paint1_radial_167_2117)"/>
<path id="Vector_4" d="M16.342 26.6663C22.2328 26.6663 27.0083 23.0845 27.0083 18.6663C27.0083 14.248 22.2328 10.6663 16.342 10.6663C10.4512 10.6663 5.67578 14.248 5.67578 18.6663C5.67578 23.0845 10.4512 26.6663 16.342 26.6663Z" fill="url(#paint2_radial_167_2117)"/>
<path id="Vector_5" d="M13.1883 17.8888C13.1258 19.2438 12.2258 19.7363 11.1795 19.7363C10.1333 19.7363 9.33326 19.0426 9.39576 17.6876C9.45826 16.3326 10.3583 15.4351 11.4045 15.4351C12.4508 15.4351 13.2508 16.5338 13.1883 17.8888Z" fill="#842123"/>
<path id="Vector_6" d="M23.2884 17.6863C23.3509 19.0413 22.5521 19.7351 21.5046 19.7351C20.4571 19.7351 19.5571 19.2438 19.4959 17.8876C19.4334 16.5326 20.2321 15.4338 21.2796 15.4338C22.3271 15.4338 23.2271 16.3301 23.2884 17.6863Z" fill="#842123"/>
<path id="Vector_7" d="M19.4957 18.0062C19.5544 19.275 20.3957 19.735 21.3757 19.735C22.3557 19.735 23.1032 19.0462 23.0444 17.7775C22.9857 16.5087 22.1444 15.6787 21.1644 15.6787C20.1844 15.6787 19.4369 16.7375 19.4957 18.0062Z" fill="url(#paint3_radial_167_2117)"/>
<path id="Vector_8" d="M13.1894 18.0062C13.1307 19.275 12.2894 19.735 11.3094 19.735C10.3294 19.735 9.58194 19.0462 9.64069 17.7775C9.69944 16.5087 10.5407 15.6787 11.5207 15.6787C12.5007 15.6787 13.2482 16.7375 13.1894 18.0062Z" fill="url(#paint4_radial_167_2117)"/>
<path id="Vector_9" d="M16.3421 20.6399C15.0196 20.6399 13.7521 20.7036 12.5796 20.8199C12.3796 20.8399 12.2521 21.0436 12.3296 21.2261C12.9859 22.7649 14.5346 23.8461 16.3421 23.8461C18.1496 23.8461 19.6971 22.7649 20.3546 21.2261C20.4321 21.0436 20.3059 20.8399 20.1046 20.8199C18.9321 20.7036 17.6646 20.6399 16.3421 20.6399Z" fill="#BBCFDA"/>
<path id="Vector_10" d="M16.3419 20.9338C15.0232 20.9338 13.7594 20.9988 12.5907 21.1176C12.3907 21.1376 12.2644 21.3451 12.3419 21.5301C12.9969 23.0938 14.5407 24.1913 16.3407 24.1913C18.1407 24.1913 19.6857 23.0926 20.3407 21.5301C20.4182 21.3451 20.2919 21.1376 20.0919 21.1176C18.9232 20.9988 17.6594 20.9338 16.3407 20.9338H16.3419Z" fill="white"/>
<path id="Vector_11" d="M16.342 20.7812C15.0445 20.7812 13.8007 20.845 12.6495 20.9613C12.4532 20.9813 12.3282 21.185 12.4045 21.3675C13.0482 22.9063 14.5682 23.9875 16.342 23.9875C18.1157 23.9875 19.6345 22.9063 20.2795 21.3675C20.3557 21.185 20.2307 20.9813 20.0345 20.9613C18.8845 20.845 17.6407 20.7812 16.342 20.7812Z" fill="url(#paint5_radial_167_2117)"/>
<path id="Vector_12" d="M22.1846 9.57869C23.6468 9.57869 24.8321 8.39336 24.8321 6.93119C24.8321 5.46902 23.6468 4.28369 22.1846 4.28369C20.7224 4.28369 19.5371 5.46902 19.5371 6.93119C19.5371 8.39336 20.7224 9.57869 22.1846 9.57869Z" fill="url(#paint6_radial_167_2117)"/>
<path id="Vector_13" d="M16.3045 11.0037C15.987 11.0037 15.7307 10.8712 15.7307 10.6662C15.7307 8.29374 17.6607 6.36499 20.032 6.36499C20.3495 6.36499 20.6057 6.62249 20.6057 6.93874C20.6057 7.25499 20.3482 7.51249 20.032 7.51249C18.2932 7.51249 16.8782 8.92749 16.8782 10.6662C16.8782 10.8712 16.6207 11.0037 16.3045 11.0037Z" fill="url(#paint7_radial_167_2117)"/>
<path id="Vector_14" d="M12.4919 18.6339C12.4919 19.1251 11.9694 19.3451 11.3257 19.3451C10.6819 19.3451 10.1594 19.1251 10.1594 18.6339C10.1594 18.1426 10.6819 17.7451 11.3257 17.7451C11.9694 17.7451 12.4919 18.1426 12.4919 18.6339Z" fill="#FF6101"/>
<path id="Vector_15" d="M22.5259 18.6339C22.5259 19.1251 22.0034 19.3451 21.3596 19.3451C20.7159 19.3451 20.1934 19.1251 20.1934 18.6339C20.1934 18.1426 20.7159 17.7451 21.3596 17.7451C22.0034 17.7451 22.5259 18.1426 22.5259 18.6339Z" fill="#FF6101"/>
<path id="Vector_16" d="M12.1308 17.3012C12.36 17.3012 12.5458 17.0986 12.5458 16.8487C12.5458 16.5988 12.36 16.3962 12.1308 16.3962C11.9016 16.3962 11.7158 16.5988 11.7158 16.8487C11.7158 17.0986 11.9016 17.3012 12.1308 17.3012Z" fill="#FFC49C"/>
<path id="Vector_17" d="M21.9946 17.3012C22.2238 17.3012 22.4096 17.0986 22.4096 16.8487C22.4096 16.5988 22.2238 16.3962 21.9946 16.3962C21.7654 16.3962 21.5796 16.5988 21.5796 16.8487C21.5796 17.0986 21.7654 17.3012 21.9946 17.3012Z" fill="#FFC49C"/>
</g>
<defs>
<radialGradient id="paint0_radial_167_2117" cx="0" cy="0" r="1" gradientUnits="userSpaceOnUse" gradientTransform="translate(25.4597 13.4447) scale(7.48769 6.53181)">
<stop stop-color="#FEFFFF"/>
<stop offset="0.4" stop-color="#FEFFFF"/>
<stop offset="0.51" stop-color="#F9FCFC"/>
<stop offset="0.62" stop-color="#EDF3F5"/>
<stop offset="0.7" stop-color="#DEE9EC"/>
<stop offset="0.72" stop-color="#D8E4E8"/>
<stop offset="0.76" stop-color="#CCD8DF"/>
<stop offset="0.8" stop-color="#C8D5DD"/>
<stop offset="0.83" stop-color="#CCD6DE"/>
<stop offset="0.85" stop-color="#D8DBE2"/>
<stop offset="0.88" stop-color="#EDE3E9"/>
<stop offset="0.9" stop-color="#FFEBEF"/>
</radialGradient>
<radialGradient id="paint1_radial_167_2117" cx="0" cy="0" r="1" gradientUnits="userSpaceOnUse" gradientTransform="translate(7.31983 13.4447) scale(7.48769 6.53181)">
<stop stop-color="#FEFFFF"/>
<stop offset="0.4" stop-color="#FEFFFF"/>
<stop offset="0.51" stop-color="#F9FCFC"/>
<stop offset="0.62" stop-color="#EDF3F5"/>
<stop offset="0.7" stop-color="#DEE9EC"/>
<stop offset="0.72" stop-color="#D8E4E8"/>
<stop offset="0.76" stop-color="#CCD8DF"/>
<stop offset="0.8" stop-color="#C8D5DD"/>
<stop offset="0.83" stop-color="#CCD6DE"/>
<stop offset="0.85" stop-color="#D8DBE2"/>
<stop offset="0.88" stop-color="#EDE3E9"/>
<stop offset="0.9" stop-color="#FFEBEF"/>
</radialGradient>
<radialGradient id="paint2_radial_167_2117" cx="0" cy="0" r="1" gradientUnits="userSpaceOnUse" gradientTransform="translate(16.6267 12.397) scale(22.5859 15.8582)">
<stop stop-color="#FEFFFF"/>
<stop offset="0.4" stop-color="#FEFFFF"/>
<stop offset="0.51" stop-color="#F9FCFC"/>
<stop offset="0.62" stop-color="#EDF3F5"/>
<stop offset="0.7" stop-color="#DEE9EC"/>
<stop offset="0.72" stop-color="#D8E4E8"/>
<stop offset="0.76" stop-color="#CCD8DF"/>
<stop offset="0.8" stop-color="#C8D5DD"/>
<stop offset="0.83" stop-color="#CCD6DE"/>
<stop offset="0.85" stop-color="#D8DBE2"/>
<stop offset="0.88" stop-color="#EDE3E9"/>
<stop offset="0.9" stop-color="#FFEBEF"/>
</radialGradient>
<radialGradient id="paint3_radial_167_2117" cx="0" cy="0" r="1" gradientUnits="userSpaceOnUse" gradientTransform="translate(20.9932 18.8714) rotate(180) scale(1.88705 2.77035)">
<stop stop-color="#FF6600"/>
<stop offset="0.5" stop-color="#FF4500"/>
<stop offset="0.7" stop-color="#FC4301"/>
<stop offset="0.82" stop-color="#F43F07"/>
<stop offset="0.92" stop-color="#E53812"/>
<stop offset="1" stop-color="#D4301F"/>
</radialGradient>
<radialGradient id="paint4_radial_167_2117" cx="0" cy="0" r="1" gradientUnits="userSpaceOnUse" gradientTransform="translate(11.607 18.8714) scale(1.88705 2.77035)">
<stop stop-color="#FF6600"/>
<stop offset="0.5" stop-color="#FF4500"/>
<stop offset="0.7" stop-color="#FC4301"/>
<stop offset="0.82" stop-color="#F43F07"/>
<stop offset="0.92" stop-color="#E53812"/>
<stop offset="1" stop-color="#D4301F"/>
</radialGradient>
<radialGradient id="paint5_radial_167_2117" cx="0" cy="0" r="1" gradientUnits="userSpaceOnUse" gradientTransform="translate(16.3793 24.3635) scale(6.65403 4.38882)">
<stop stop-color="#172E35"/>
<stop offset="0.29" stop-color="#0E1C21"/>
<stop offset="0.73" stop-color="#030708"/>
<stop offset="1"/>
</radialGradient>
<radialGradient id="paint6_radial_167_2117" cx="0" cy="0" r="1" gradientUnits="userSpaceOnUse" gradientTransform="translate(22.2474 4.2632) scale(5.84093 5.84092)">
<stop stop-color="#FEFFFF"/>
<stop offset="0.4" stop-color="#FEFFFF"/>
<stop offset="0.51" stop-color="#F9FCFC"/>
<stop offset="0.62" stop-color="#EDF3F5"/>
<stop offset="0.7" stop-color="#DEE9EC"/>
<stop offset="0.72" stop-color="#D8E4E8"/>
<stop offset="0.76" stop-color="#CCD8DF"/>
<stop offset="0.8" stop-color="#C8D5DD"/>
<stop offset="0.83" stop-color="#CCD6DE"/>
<stop offset="0.85" stop-color="#D8DBE2"/>
<stop offset="0.88" stop-color="#EDE3E9"/>
<stop offset="0.9" stop-color="#FFEBEF"/>
</radialGradient>
<radialGradient id="paint7_radial_167_2117" cx="0" cy="0" r="1" gradientUnits="userSpaceOnUse" gradientTransform="translate(19.8132 10.6307) scale(4.78754 4.78754)">
<stop offset="0.48" stop-color="#7A9299"/>
<stop offset="0.67" stop-color="#172E35"/>
<stop offset="0.75"/>
<stop offset="0.82" stop-color="#172E35"/>
</radialGradient>
</defs>
</svg>
