<svg width="33" height="33" viewBox="0 0 33 33" fill="none" xmlns="http://www.w3.org/2000/svg">
<g id="Social Icons" clip-path="url(#clip0_56_3066)">
<path id="Vector" d="M23.9228 15.3314C23.785 15.2653 23.645 15.2017 23.5032 15.1409C23.2562 10.5897 20.7693 7.98417 16.5936 7.9575C16.5747 7.95738 16.5559 7.95738 16.537 7.95738C14.0394 7.95738 11.9622 9.02348 10.6837 10.9635L12.9802 12.5388C13.9353 11.0897 15.4342 10.7808 16.5381 10.7808C16.5508 10.7808 16.5637 10.7808 16.5763 10.7809C17.9512 10.7897 18.9887 11.1894 19.6602 11.969C20.1488 12.5366 20.4757 13.3208 20.6375 14.3106C19.4185 14.1035 18.1002 14.0398 16.6908 14.1206C12.7208 14.3492 10.1685 16.6646 10.3399 19.882C10.4269 21.514 11.24 22.918 12.6292 23.8352C13.8037 24.6105 15.3165 24.9897 16.8887 24.9038C18.965 24.79 20.5938 23.9978 21.7302 22.5493C22.5932 21.4493 23.139 20.0238 23.38 18.2277C24.3695 18.8248 25.1028 19.6107 25.5078 20.5553C26.1965 22.1612 26.2367 24.8 24.0835 26.9513C22.197 28.836 19.9293 29.6513 16.5022 29.6765C12.7007 29.6483 9.82563 28.4292 7.95635 26.0528C6.20592 23.8277 5.30128 20.6137 5.26753 16.5C5.30128 12.3863 6.20592 9.17227 7.95635 6.94712C9.82563 4.57082 12.7007 3.35167 16.5022 3.32342C20.3313 3.35188 23.2565 4.5769 25.1973 6.96467C26.149 8.1356 26.8665 9.60813 27.3395 11.3251L30.0307 10.607C29.4573 8.4937 28.5552 6.67262 27.3275 5.16233C24.8393 2.10111 21.2003 0.532525 16.5116 0.5H16.4928C11.8136 0.532412 8.21535 2.10697 5.79805 5.17988C3.64698 7.9144 2.5374 11.7193 2.50012 16.4888L2.5 16.5L2.50012 16.5112C2.5374 21.2807 3.64698 25.0857 5.79805 27.8202C8.21535 30.893 11.8136 32.4677 16.4928 32.5H16.5116C20.6717 32.4712 23.604 31.382 26.0197 28.9685C29.1802 25.811 29.085 21.8532 28.0433 19.4235C27.296 17.6812 25.8712 16.266 23.9228 15.3314ZM16.7401 22.0845C15.0001 22.1825 13.1924 21.4015 13.1033 19.7287C13.0372 18.4883 13.986 17.1043 16.8469 16.9395C17.1745 16.9206 17.496 16.9113 17.8118 16.9113C18.851 16.9113 19.8232 17.0123 20.707 17.2055C20.3773 21.3225 18.4437 21.991 16.7401 22.0845Z" fill="black"/>
</g>
<defs>
<clipPath id="clip0_56_3066">
<rect width="32" height="32" fill="white" transform="translate(0.333252 0.5)"/>
</clipPath>
</defs>
</svg>
