<svg width="29" height="28" viewBox="0 0 29 28" fill="none" xmlns="http://www.w3.org/2000/svg">
<path d="M3 3.5H10C11.2377 3.5 12.4247 3.99167 13.2998 4.86683C14.175 5.742 14.6667 6.92899 14.6667 8.16667V24.5C14.6667 23.5717 14.2979 22.6815 13.6415 22.0251C12.9852 21.3687 12.0949 21 11.1667 21H3V3.5Z" stroke="#736B62" stroke-width="1.5" stroke-linecap="round" stroke-linejoin="round"/>
<path d="M26.3333 3.5H19.3333C18.0956 3.5 16.9086 3.99167 16.0335 4.86683C15.1583 5.742 14.6666 6.92899 14.6666 8.16667V24.5C14.6666 23.5717 15.0354 22.6815 15.6918 22.0251C16.3481 21.3687 17.2384 21 18.1666 21H26.3333V3.5Z" stroke="#736B62" stroke-width="1.5" stroke-linecap="round" stroke-linejoin="round"/>
</svg>
