<svg width="33" height="33" viewBox="0 0 33 33" fill="none" xmlns="http://www.w3.org/2000/svg">
<g id="Social Icons" clip-path="url(#clip0_56_3064)">
<path id="Vector" d="M30.3044 0.5H3.02885C2.40235 0.5 1.80151 0.748877 1.35851 1.19188C0.915503 1.63488 0.666626 2.23572 0.666626 2.86222V30.1378C0.666626 30.7643 0.915503 31.3651 1.35851 31.8081C1.80151 32.2511 2.40235 32.5 3.02885 32.5H30.3044C30.9309 32.5 31.5317 32.2511 31.9748 31.8081C32.4178 31.3651 32.6666 30.7643 32.6666 30.1378V2.86222C32.6666 2.23572 32.4178 1.63488 31.9748 1.19188C31.5317 0.748877 30.9309 0.5 30.3044 0.5ZM10.2044 27.76H5.39329V12.4778H10.2044V27.76ZM7.79552 10.36C7.24978 10.3569 6.71718 10.1923 6.26494 9.88678C5.8127 9.58131 5.46108 9.14871 5.25446 8.64359C5.04785 8.13846 4.99549 7.58346 5.104 7.04861C5.21251 6.51376 5.47703 6.02304 5.86417 5.63838C6.2513 5.25372 6.74371 4.99236 7.27925 4.88728C7.81478 4.78221 8.36944 4.83812 8.87323 5.04798C9.37701 5.25784 9.80735 5.61222 10.1099 6.06642C10.4125 6.52061 10.5737 7.05426 10.5733 7.6C10.5784 7.96538 10.51 8.32805 10.372 8.66641C10.234 9.00476 10.0293 9.31187 9.77005 9.56942C9.51084 9.82698 9.20243 10.0297 8.86319 10.1655C8.52396 10.3014 8.16085 10.3675 7.79552 10.36ZM27.9377 27.7733H23.1289V19.4244C23.1289 16.9622 22.0822 16.2022 20.7311 16.2022C19.3044 16.2022 17.9044 17.2778 17.9044 19.4867V27.7733H13.0933V12.4889H17.72V14.6067H17.7822C18.2466 13.6667 19.8733 12.06 22.3555 12.06C25.04 12.06 27.94 13.6533 27.94 18.32L27.9377 27.7733Z" fill="#0A66C2"/>
</g>
<defs>
<clipPath id="clip0_56_3064">
<rect width="32" height="32" fill="white" transform="translate(0.666626 0.5)"/>
</clipPath>
</defs>
</svg>
