<svg xmlns="http://www.w3.org/2000/svg" width="24" height="24" viewBox="0 0 24 24" fill="black">
<path d="M13.0605 8.11097L14.4747 9.52518C17.2084 12.2589 17.2084 16.691 14.4747 19.4247L14.1212 19.7782C11.3875 22.5119 6.95531 22.5119 4.22164 19.7782C1.48797 17.0446 1.48797 12.6124 4.22164 9.87874L5.63586 11.293C3.68324 13.2456 3.68324 16.4114 5.63586 18.364C7.58848 20.3166 10.7543 20.3166 12.707 18.364L13.0605 18.0105C15.0131 16.0578 15.0131 12.892 13.0605 10.9394L11.6463 9.52518L13.0605 8.11097ZM19.778 14.1214L18.3638 12.7072C20.3164 10.7545 20.3164 7.58872 18.3638 5.6361C16.4112 3.68348 13.2454 3.68348 11.2928 5.6361L10.9392 5.98965C8.98654 7.94227 8.98654 11.1081 10.9392 13.0607L12.3534 14.4749L10.9392 15.8891L9.52494 14.4749C6.79127 11.7413 6.79127 7.30911 9.52494 4.57544L9.8785 4.22188C12.6122 1.48821 17.0444 1.48821 19.778 4.22188C22.5117 6.95555 22.5117 11.3877 19.778 14.1214Z" />
</svg>